<svg width="19" height="24" viewBox="0 0 19 24" fill="none" xmlns="http://www.w3.org/2000/svg">
<path d="M17.7215 8.57274L17.3349 20.2727C17.302 21.2747 16.8799 22.2244 16.1582 22.9204C15.4365 23.6163 14.472 24.0035 13.4694 24H6.12494C5.12303 24.0036 4.1591 23.6168 3.43749 22.9217C2.71589 22.2267 2.29335 21.2779 2.25944 20.2765L1.87289 8.57274C1.86443 8.31644 1.95813 8.06728 2.13338 7.88007C2.30863 7.69285 2.55107 7.58293 2.80737 7.57447C3.06367 7.56601 3.31283 7.65972 3.50004 7.83497C3.68726 8.01022 3.79718 8.25266 3.80564 8.50896L4.19219 20.2118C4.21144 20.7114 4.42353 21.1841 4.78393 21.5306C5.14433 21.8771 5.62498 22.0705 6.12494 22.0701H13.4694C13.97 22.0705 14.4512 21.8765 14.8117 21.5292C15.1722 21.1819 15.3839 20.7082 15.4022 20.2079L15.7887 8.50896C15.7972 8.25266 15.9071 8.01022 16.0943 7.83497C16.2815 7.65972 16.5307 7.56601 16.787 7.57447C17.0433 7.58293 17.2857 7.69285 17.461 7.88007C17.6362 8.06728 17.7299 8.31644 17.7215 8.57274ZM19 4.67921C19 4.9355 18.8982 5.18131 18.7169 5.36254C18.5357 5.54377 18.2899 5.64558 18.0336 5.64558H1.56171C1.30541 5.64558 1.05961 5.54377 0.878382 5.36254C0.697151 5.18131 0.595337 4.9355 0.595337 4.67921C0.595337 4.42291 0.697151 4.17711 0.878382 3.99587C1.05961 3.81464 1.30541 3.71283 1.56171 3.71283H4.55748C4.86368 3.71365 5.15922 3.60053 5.38661 3.39547C5.614 3.19041 5.75696 2.90808 5.78768 2.60343C5.85899 1.88878 6.19381 1.22627 6.7269 0.744997C7.25998 0.263719 7.95315 -0.00185864 8.67135 9.79218e-06H10.923C11.6412 -0.00185864 12.3344 0.263719 12.8675 0.744997C13.4005 1.22627 13.7354 1.88878 13.8067 2.60343C13.8374 2.90808 13.9803 3.19041 14.2077 3.39547C14.4351 3.60053 14.7307 3.71365 15.0369 3.71283H18.0326C18.2889 3.71283 18.5347 3.81464 18.716 3.99587C18.8972 4.17711 18.999 4.42291 18.999 4.67921H19ZM7.46531 3.71283H12.131C12.004 3.42267 11.9209 3.11521 11.8845 2.80057C11.8606 2.56237 11.7491 2.34153 11.5716 2.18084C11.3942 2.02016 11.1634 1.93107 10.924 1.93083H8.67231C8.43291 1.93107 8.20212 2.02016 8.02465 2.18084C7.84718 2.34153 7.73567 2.56237 7.71173 2.80057C7.67504 3.11526 7.59263 3.42272 7.46531 3.71283ZM8.43845 18.3544V10.1257C8.43845 9.86941 8.33664 9.6236 8.1554 9.44237C7.97417 9.26114 7.72837 9.15933 7.47207 9.15933C7.21577 9.15933 6.96997 9.26114 6.78874 9.44237C6.60751 9.6236 6.5057 9.86941 6.5057 10.1257V18.3583C6.5057 18.6146 6.60751 18.8604 6.78874 19.0416C6.96997 19.2228 7.21577 19.3246 7.47207 19.3246C7.72837 19.3246 7.97417 19.2228 8.1554 19.0416C8.33664 18.8604 8.43845 18.6146 8.43845 18.3583V18.3544ZM13.0906 18.3544V10.1257C13.0906 9.86941 12.9888 9.6236 12.8075 9.44237C12.6263 9.26114 12.3805 9.15933 12.1242 9.15933C11.8679 9.15933 11.6221 9.26114 11.4409 9.44237C11.2596 9.6236 11.1578 9.86941 11.1578 10.1257V18.3583C11.1578 18.6146 11.2596 18.8604 11.4409 19.0416C11.6221 19.2228 11.8679 19.3246 12.1242 19.3246C12.3805 19.3246 12.6263 19.2228 12.8075 19.0416C12.9888 18.8604 13.0906 18.6146 13.0906 18.3583V18.3544Z" fill="black"/>
</svg>
