<svg width="25" height="24" viewBox="0 0 25 24" fill="none" xmlns="http://www.w3.org/2000/svg">
<path d="M23.3887 12.0035C23.0706 12.0035 22.7654 12.1299 22.5404 12.3548C22.3155 12.5798 22.1891 12.885 22.1891 13.2031V20.401C22.1891 20.7192 22.0627 21.0243 21.8377 21.2493C21.6127 21.4743 21.3076 21.6007 20.9894 21.6007H4.19429C3.87613 21.6007 3.57099 21.4743 3.34601 21.2493C3.12103 21.0243 2.99464 20.7192 2.99464 20.401V3.60591C2.99464 3.28774 3.12103 2.98261 3.34601 2.75763C3.57099 2.53265 3.87613 2.40626 4.19429 2.40626H11.3922C11.7104 2.40626 12.0155 2.27987 12.2405 2.05489C12.4655 1.82991 12.5919 1.52478 12.5919 1.20661C12.5919 0.888441 12.4655 0.583304 12.2405 0.358326C12.0155 0.133348 11.7104 0.00695599 11.3922 0.00695599H4.19429C3.23979 0.00695599 2.32438 0.386131 1.64945 1.06107C0.974512 1.736 0.595337 2.65141 0.595337 3.60591V20.401C0.595337 21.3555 0.974512 22.271 1.64945 22.9459C2.32438 23.6208 3.23979 24 4.19429 24H20.9894C21.9439 24 22.8593 23.6208 23.5343 22.9459C24.2092 22.271 24.5884 21.3555 24.5884 20.401V13.2031C24.5884 12.885 24.462 12.5798 24.237 12.3548C24.012 12.1299 23.7069 12.0035 23.3887 12.0035ZM5.39395 12.9152V18.0017C5.39395 18.3199 5.52034 18.625 5.74532 18.85C5.97029 19.075 6.27543 19.2014 6.5936 19.2014H11.6801C11.838 19.2023 11.9945 19.172 12.1407 19.1123C12.2868 19.0526 12.4198 18.9647 12.5319 18.8535L20.8335 10.5399L24.2405 7.20487C24.3529 7.09335 24.4422 6.96066 24.5031 6.81447C24.564 6.66829 24.5953 6.51148 24.5953 6.35312C24.5953 6.19475 24.564 6.03795 24.5031 5.89176C24.4422 5.74557 24.3529 5.61289 24.2405 5.50136L19.154 0.354855C19.0424 0.242414 18.9097 0.153166 18.7636 0.0922616C18.6174 0.0313568 18.4606 0 18.3022 0C18.1438 0 17.987 0.0313568 17.8408 0.0922616C17.6947 0.153166 17.562 0.242414 17.4504 0.354855L14.0674 3.74987L5.74184 12.0635C5.63066 12.1756 5.54269 12.3085 5.48299 12.4547C5.42329 12.6008 5.39303 12.7573 5.39395 12.9152ZM18.3022 2.89812L21.6972 6.29313L19.9937 7.99664L16.5987 4.60162L18.3022 2.89812ZM7.79325 13.4071L14.9072 6.29313L18.3022 9.68815L11.1883 16.8021H7.79325V13.4071Z" fill="black"/>
</svg>
