<svg width="60" height="60" viewBox="0 0 60 60" fill="none" xmlns="http://www.w3.org/2000/svg">
<path fill-rule="evenodd" clip-rule="evenodd" d="M18.75 37.5C14.6081 37.5 11.25 34.1419 11.25 30C11.25 25.8581 14.6081 22.5 18.75 22.5C22.8919 22.5 26.25 25.8581 26.25 30C26.25 34.1419 22.8919 37.5 18.75 37.5ZM18.75 18.75C12.5381 18.75 7.5 23.7881 7.5 30C7.5 36.2119 12.5381 41.25 18.75 41.25C24.9637 41.25 30 36.2119 30 30C30 23.7881 24.9637 18.75 18.75 18.75ZM41.25 45H18.75C10.4662 45 3.75 38.2838 3.75 30C3.75 21.7162 10.4662 15 18.75 15H41.25C49.5338 15 56.25 21.7162 56.25 30C56.25 38.2838 49.5338 45 41.25 45ZM41.25 11.25H18.75C8.39438 11.25 0 19.6463 0 30C0 40.3537 8.39438 48.75 18.75 48.75H41.25C51.6056 48.75 60 40.3537 60 30C60 19.6463 51.6056 11.25 41.25 11.25Z" fill="#C7B882"/>
</svg>
